<?xml version="1.0" encoding="UTF-8" standalone="no"?>
<!DOCTYPE svg PUBLIC "-//W3C//DTD SVG 1.1//EN" "http://www.w3.org/Graphics/SVG/1.1/DTD/svg11.dtd">
<svg width="100%" height="100%" viewBox="0 0 512 512" version="1.1" xmlns="http://www.w3.org/2000/svg" xmlns:xlink="http://www.w3.org/1999/xlink" xml:space="preserve" xmlns:serif="http://www.serif.com/" style="fill-rule:evenodd;clip-rule:evenodd;stroke-linejoin:round;stroke-miterlimit:2;">
    <g transform="matrix(0.958296,0,0,0.959426,11,8.2231)">
        <path d="M27.5,79.5C120.834,79.333 214.167,79.5 307.5,80C317.333,83.167 323.833,89.667 327,99.5C327.5,116.83 327.667,134.163 327.5,151.5C361.587,151.014 395.587,151.514 429.5,153C453.667,190.5 477.833,228 502,265.5C503.656,311.417 503.99,357.417 503,403.5C502.5,405.333 501.333,406.5 499.5,407C487.505,407.5 475.505,407.667 463.5,407.5C458.948,433.219 443.948,449.053 418.5,455C390.182,458.918 369.349,448.418 356,423.5C353.986,418.293 352.486,412.96 351.5,407.5L159.5,407.5C154.948,433.219 139.948,449.053 114.5,455C86.182,458.918 65.349,448.418 52,423.5C49.986,418.293 48.486,412.96 47.5,407.5C35.495,407.667 23.495,407.5 11.5,407C9.667,406.5 8.5,405.333 8,403.5C7.333,302.167 7.333,200.833 8,99.5C11.351,89.65 17.851,82.983 27.5,79.5ZM35.5,95.5C123.501,95.333 211.501,95.5 299.5,96C306,97.167 309.833,101 311,107.5C311.5,170.166 311.667,232.832 311.5,295.5L23.5,295.5C23.333,232.832 23.5,170.166 24,107.5C25.348,100.987 29.181,96.988 35.5,95.5ZM327.5,167.5C357.835,167.333 388.168,167.5 418.5,168C420.167,170.333 421.833,172.667 423.5,175C400.833,175.333 378.167,175.667 355.5,176C354.584,176.374 353.75,176.874 353,177.5C351.847,194.078 351.347,210.745 351.5,227.5C351.667,243.5 351.833,259.5 352,275.5C352.374,276.416 352.874,277.25 353.5,278C398.082,279.49 442.748,279.99 487.5,279.5L487.5,295.5C479.826,295.334 472.159,295.5 464.5,296C449.242,302.356 444.075,313.523 449,329.5C452.314,336.149 457.481,340.649 464.5,343C472.159,343.5 479.826,343.666 487.5,343.5L487.5,391.5L463.5,391.5C458.948,365.781 443.948,349.947 418.5,344C392.351,340.476 372.185,349.643 358,371.5C354.927,377.884 352.761,384.551 351.5,391.5L327.5,391.5L327.5,167.5ZM367.5,191.5C389.843,191.167 412.177,191.5 434.5,192.5C449.5,215.833 464.5,239.167 479.5,262.5C442.173,263.5 404.839,263.833 367.5,263.5L367.5,191.5ZM23.5,311.5L311.5,311.5L311.5,391.5L159.5,391.5C154.948,365.781 139.948,349.947 114.5,344C88.351,340.476 68.185,349.643 54,371.5C50.928,377.884 48.761,384.551 47.5,391.5L23.5,391.5L23.5,311.5ZM471.5,311.5L487.5,311.5L487.5,327.5C482.156,327.666 476.823,327.499 471.5,327C464.408,324.841 462.742,320.507 466.5,314C468.315,313.243 469.981,312.41 471.5,311.5ZM102.5,359.5C130.877,363.039 144.043,379.039 142,407.5C134.842,430.965 119.009,441.132 94.5,438C72.074,430.56 62.241,415.06 65,391.5C70.347,372.312 82.847,361.645 102.5,359.5ZM406.5,359.5C434.877,363.039 448.043,379.039 446,407.5C438.842,430.965 423.009,441.132 398.5,438C376.074,430.56 366.241,415.06 369,391.5C374.347,372.312 386.847,361.645 406.5,359.5ZM100.5,392.5C109.85,392.365 112.517,396.532 108.5,405C99.956,408.322 96.123,405.489 97,396.5C97.69,394.65 98.856,393.316 100.5,392.5ZM404.5,392.5C413.85,392.365 416.517,396.532 412.5,405C403.956,408.322 400.123,405.489 401,396.5C401.69,394.65 402.856,393.316 404.5,392.5Z" style="fill:rgb(0,64,133);fill-opacity:0.98;"/>
    </g>
    <g transform="matrix(0.958296,0,0,0.959426,11,8.2231)">
        <path d="M355.5,295.5C366.172,295.333 376.839,295.5 387.5,296C389.333,296.5 390.5,297.667 391,299.5C391.667,302.167 391.667,304.833 391,307.5C390.5,309.333 389.333,310.5 387.5,311C376.833,311.667 366.167,311.667 355.5,311C352.484,309.471 351.151,306.971 351.5,303.5C351.282,299.934 352.616,297.268 355.5,295.5Z" style="fill:rgb(0,64,133);fill-opacity:0.96;"/>
    </g>
    <g transform="matrix(0.958296,0,0,0.959426,11,8.2231)">
        <path d="M211.5,327.5C235.502,327.333 259.502,327.5 283.5,328C285.333,328.5 286.5,329.667 287,331.5C287.667,334.167 287.667,336.833 287,339.5C286.5,341.333 285.333,342.5 283.5,343C259.5,343.667 235.5,343.667 211.5,343C208.484,341.471 207.151,338.971 207.5,335.5C207.282,331.934 208.616,329.268 211.5,327.5Z" style="fill:rgb(0,64,133);fill-opacity:0.98;"/>
    </g>
    <g transform="matrix(0.958296,0,0,0.959426,11,8.2231)">
        <path d="M251.5,351.5C262.172,351.333 272.839,351.5 283.5,352C285.333,352.5 286.5,353.667 287,355.5C287.667,358.167 287.667,360.833 287,363.5C286.5,365.333 285.333,366.5 283.5,367C272.833,367.667 262.167,367.667 251.5,367C248.484,365.471 247.151,362.971 247.5,359.5C247.282,355.934 248.616,353.268 251.5,351.5Z" style="fill:rgb(0,64,133);fill-opacity:0.96;"/>
    </g>
    <g transform="matrix(0.958296,0,0,0.959426,11,8.2231)">
        <path d="M96.5,375.5C111.367,373.012 121.534,378.678 127,392.5C129.982,407.376 124.482,417.543 110.5,423C95.624,425.982 85.457,420.482 80,406.5C77.147,391.533 82.647,381.199 96.5,375.5ZM100.5,392.5C98.856,393.316 97.69,394.65 97,396.5C96.123,405.489 99.956,408.322 108.5,405C112.517,396.532 109.85,392.365 100.5,392.5Z" style="fill:rgb(0,64,133);fill-opacity:0.93;"/>
    </g>
    <g transform="matrix(0.958296,0,0,0.959426,11,8.2231)">
        <path d="M400.5,375.5C415.367,373.012 425.534,378.678 431,392.5C433.982,407.376 428.482,417.543 414.5,423C399.624,425.982 389.457,420.482 384,406.5C381.146,391.533 386.646,381.199 400.5,375.5ZM404.5,392.5C402.856,393.316 401.69,394.65 401,396.5C400.123,405.489 413.85,392.365 404.5,392.5Z" style="fill:rgb(0,64,133);fill-opacity:0.93;"/>
    </g>
</svg>
