<?xml version="1.0" encoding="UTF-8" standalone="no"?>
<!DOCTYPE svg PUBLIC "-//W3C//DTD SVG 1.1//EN" "http://www.w3.org/Graphics/SVG/1.1/DTD/svg11.dtd">
<svg width="100%" height="100%" viewBox="0 0 100 100" version="1.1" xmlns="http://www.w3.org/2000/svg" xmlns:xlink="http://www.w3.org/1999/xlink" xml:space="preserve" xmlns:serif="http://www.serif.com/" style="fill-rule:evenodd;clip-rule:evenodd;stroke-linejoin:round;stroke-miterlimit:2;">
    <g transform="matrix(0.154756,0,0,0.158596,12.015,9.62011)">
        <path d="M67.5,31.5C112.835,31.333 158.168,31.5 203.5,32C206.516,33.529 207.849,36.029 207.5,39.5C207.849,42.971 206.516,45.471 203.5,47C158.167,47.667 112.833,47.667 67.5,47C64.484,45.471 63.151,42.971 63.5,39.5C63.282,35.934 64.616,33.268 67.5,31.5Z" style="fill:rgb(0,64,133);fill-opacity:0.99;"/>
    </g>
    <g transform="matrix(0.154756,0,0,0.158596,12.015,9.62011)">
        <path d="M261.5,31.5C282.311,27.973 301.311,32.14 318.5,44C331.045,54.253 336.545,67.42 335,83.5C333.461,86.521 330.961,87.854 327.5,87.5C329.592,116.222 316.925,134.722 289.5,143C273.389,145.933 259.222,142.099 247,131.5C244.299,121.423 248.132,117.257 258.5,119C268.046,126.534 278.712,128.534 290.5,125C306.039,117.76 312.539,105.594 310,88.5C302.253,87.518 294.42,87.185 286.5,87.5C283.761,100.073 276.094,107.907 263.5,111C252.833,111.667 242.167,111.667 231.5,111C224.797,102.882 222.13,93.549 223.5,83C223.168,56.14 235.834,38.974 261.5,31.5ZM271.5,47.5C285.181,46.502 297.515,50.002 308.5,58C312.081,61.748 315.081,65.915 317.5,70.5C303.512,71.333 289.512,71.833 275.5,72C274.584,72.374 273.75,72.874 273,73.5C270.418,92.057 259.918,99.057 241.5,94.5C238.584,83.407 239.751,72.74 245,62.5C251.61,53.448 260.443,48.448 271.5,47.5Z" style="fill:rgb(0,64,133);fill-opacity:0.94;"/>
    </g>
    <g transform="matrix(0.154756,0,0,0.158596,12.015,9.62011)">
        <path d="M19.5,63.5C54.168,63.333 88.835,63.5 123.5,64C126.516,65.529 127.849,68.029 127.5,71.5C127.849,74.971 126.516,77.471 123.5,79C88.833,79.667 54.167,79.667 19.5,79C16.484,77.471 15.151,74.971 15.5,71.5C15.282,67.934 16.616,65.268 19.5,63.5Z" style="fill:rgb(0,64,133);fill-opacity:0.99;"/>
    </g>
    <g transform="matrix(0.154756,0,0,0.158596,12.015,9.62011)">
        <path d="M212.5,135.5C233.572,135.121 251.072,142.788 265,158.5C276.619,172.241 288.119,186.074 299.5,200C320.237,202.637 340.904,205.637 361.5,209C368.515,212.514 373.181,218.014 375.5,225.5C390.553,231.719 400.053,242.719 404,258.5C409.722,295.557 415.722,332.557 422,369.5C447.315,363.579 469.649,369.245 489,386.5C491,389.833 491,393.167 489,396.5C486.833,398.667 484.667,400.833 482.5,403C493.909,416.796 498.076,432.629 495,450.5C487.407,478.925 468.907,493.925 439.5,495.5C422.617,495.82 408.451,489.82 397,477.5C393.863,473.531 391.363,469.197 389.5,464.5C391.205,456.481 395.872,453.981 403.5,457C419.895,480.746 440.229,485.08 464.5,470C478.116,457.369 481.949,442.203 476,424.5C474.503,420.835 472.503,417.502 470,414.5C442.939,445.739 409.272,456.072 369,445.5C366.069,415.363 377.569,392.363 403.5,376.5C403.833,375.167 404.167,373.833 404.5,372.5C399.167,337.834 393.833,303.167 388.5,268.5C387.38,257.582 382.214,249.249 373,243.5C367.971,252.098 360.471,256.098 350.5,255.5C326.767,253.242 303.1,250.408 279.5,247C276.833,245.667 274.167,244.333 271.5,243C253.634,224.802 236.134,206.302 219,187.5C217.67,177.833 221.836,173.999 231.5,176C248.888,194.053 266.222,212.053 283.5,230C307.041,233.912 330.708,236.579 354.5,238C358.701,234.975 359.535,231.141 357,226.5C355.352,225.283 353.519,224.45 351.5,224C331.448,221.66 311.448,218.994 291.5,216C276.46,199.295 261.793,182.295 247.5,165C229.845,149.849 211.511,148.849 192.5,162C175.108,181.285 163.941,203.785 159,229.5C156.189,244.117 155.855,258.783 158,273.5C160.578,288.406 169.078,297.906 183.5,302C217.654,303.859 251.32,308.859 284.5,317C286.768,318.558 287.934,320.724 288,323.5C291.961,353.227 296.294,382.894 301,412.5C309.699,429.602 322.866,434.436 340.5,427C345.252,423.586 348.419,419.086 350,413.5C351.303,367.532 351.97,321.532 352,275.5C352.5,273.667 353.667,272.5 355.5,272C358.964,271.183 362.298,271.517 365.5,273C366.126,273.75 366.626,274.584 367,275.5C367.667,322.5 367.667,369.5 367,416.5C362.833,432.667 352.667,442.833 336.5,447C288.168,447.5 239.834,447.667 191.5,447.5C186.557,472.901 171.557,488.734 146.5,495C121.927,498.452 102.427,490.285 88,470.5C83.089,459.478 86.589,454.645 98.5,456C112.9,478.434 132.233,484.101 156.5,473C165.604,466.74 171.271,458.24 173.5,447.5C127.499,447.667 81.499,447.5 35.5,447C33.667,446.5 32.5,445.333 32,443.5C31.333,440.5 31.333,437.5 32,434.5C38,415.833 44,397.167 50,378.5C60.386,353.784 76.886,334.284 99.5,320C72.833,319.667 46.167,319.333 19.5,319C18.584,318.626 17.75,318.126 17,317.5C15.844,296.92 15.344,276.253 15.5,255.5C15.344,234.747 15.844,214.08 17,193.5C17.75,192.874 18.584,192.374 19.5,192C36.833,191.833 54.167,191.667 71.5,191.5C89.588,191.346 107.588,191.846 125.5,193C126.126,193.75 126.626,194.584 127,195.5C127.5,231.498 127.667,267.498 127.5,303.5C136.173,303.666 144.84,303.5 153.5,303C146.778,295.051 142.611,285.885 141,275.5C136.269,233.757 145.935,195.757 170,161.5C180.569,146.728 194.736,138.062 212.5,135.5ZM31.5,207.5L111.5,207.5L111.5,223.5C91.497,223.333 71.497,223.5 51.5,224C48.484,225.529 47.151,228.029 47.5,231.5C47.151,234.971 48.484,237.471 51.5,239C71.497,239.5 91.497,239.667 111.5,239.5L111.5,303.5L31.5,303.5L31.5,207.5ZM160.5,319.5C175.527,319.243 190.527,319.743 205.5,321C216.204,324.705 222.037,332.205 223,343.5C223.333,363.167 223.667,382.833 224,402.5C226.472,413.111 231.305,422.445 238.5,430.5C176.17,431.5 113.837,431.833 51.5,431.5C56.676,410.462 63.843,390.129 73,370.5C93.677,338.912 122.844,321.912 160.5,319.5ZM235.5,325.5C247.05,326.423 258.717,328.256 270.5,331C271,331.5 271.5,332 272,332.5C275.72,360.209 279.72,387.876 284,415.5C285.408,421.486 288.242,426.652 292.5,431C273.177,434.012 257.677,427.845 246,412.5C242.29,405.996 240.29,398.996 240,391.5C239.667,372.5 239.333,353.5 239,334.5C238.495,331.135 237.328,328.135 235.5,325.5ZM429.5,384.5C442.532,382.93 454.865,385.097 466.5,391C467.451,391.718 467.617,392.551 467,393.5C458.263,402.115 449.429,410.615 440.5,419C423.469,430.214 404.802,434.048 384.5,430.5C390.143,405.858 405.143,390.525 429.5,384.5Z" style="fill:rgb(0,64,133);fill-opacity:0.95;"/>
    </g>
    <g transform="matrix(0.154756,0,0,0.158596,12.015,9.62011)">
        <path d="M407.5,175.5C416.25,175.09 424.916,175.59 433.5,177C439,179.833 443.167,184 446,189.5C447.597,200.427 447.931,211.427 447,222.5C442.237,235.553 432.904,241.22 419,239.5C396.849,240.179 385.015,229.512 383.5,207.5C384.262,191.274 392.262,180.608 407.5,175.5ZM415.5,191.5C420.08,191.113 424.414,191.947 428.5,194C429.717,195.648 430.55,197.481 431,199.5C435.349,221.56 427.182,228.393 406.5,220C398.5,211.667 398.5,203.333 406.5,195C409.459,193.396 412.459,192.229 415.5,191.5Z" style="fill:rgb(0,64,133);fill-opacity:0.94;"/>
    </g>
    <g transform="matrix(0.154756,0,0,0.158596,12.015,9.62011)">
        <path d="M228.5,223.5C237.161,222.329 240.994,225.996 240,234.5C238.476,240.598 236.642,246.598 234.5,252.5C234.833,252.833 235.167,253.167 235.5,253.5C260.531,259.174 285.531,265.008 310.5,271C323.673,276.175 331.84,285.675 335,299.5C335.667,331.5 335.667,363.5 335,395.5C334.626,396.416 334.126,397.25 333.5,398C330.298,399.483 326.964,399.817 323.5,399C321.667,398.5 320.5,397.333 320,395.5C319.667,366.5 319.333,337.5 319,308.5C318.037,297.205 312.204,289.705 301.5,286C273.705,280.134 246.038,273.801 218.5,267C215.682,263.662 214.849,259.829 216,255.5C218.511,246.454 221.178,237.454 224,228.5C225.025,226.313 226.525,224.646 228.5,223.5Z" style="fill:rgb(0,64,133);fill-opacity:0.95;"/>
    </g>
    <g transform="matrix(0.154756,0,0,0.158596,12.015,9.62011)">
        <path d="M99.5,383.5C123.502,383.333 147.502,383.5 171.5,384C173.333,384.5 174.5,385.667 175,387.5C175.667,390.167 175.667,392.833 175,395.5C174.5,397.333 173.333,398.5 171.5,399C147.5,399.667 123.5,399.667 99.5,399C96.484,397.471 95.151,394.971 95.5,391.5C95.282,387.934 96.616,385.268 99.5,383.5Z" style="fill:rgb(0,64,133);fill-opacity:0.98;"/>
    </g>
</svg>
