<?xml version="1.0" encoding="UTF-8" standalone="no"?>
<!DOCTYPE svg PUBLIC "-//W3C//DTD SVG 1.1//EN" "http://www.w3.org/Graphics/SVG/1.1/DTD/svg11.dtd">
<svg width="100%" height="100%" viewBox="0 0 100 100" version="1.1" xmlns="http://www.w3.org/2000/svg" xmlns:xlink="http://www.w3.org/1999/xlink" xml:space="preserve" xmlns:serif="http://www.serif.com/" style="fill-rule:evenodd;clip-rule:evenodd;stroke-linejoin:round;stroke-miterlimit:2;">
    <g transform="matrix(0.192324,0,0,0.154031,0.705156,12.6165)">
        <path d="M511.5,233.5L511.5,379.5C508.832,386.341 504.166,391.508 497.5,395C485.541,396.083 473.541,396.916 461.5,397.5C445.904,437.479 416.57,455.979 373.5,453C351.31,449.779 333.31,439.446 319.5,422C305.167,421.667 290.833,421.333 276.5,421C270.036,419.244 267.87,415.077 270,408.5C271.167,407.333 272.333,406.167 273.5,405C285.104,403.588 296.771,403.088 308.5,403.5C306.205,396.318 304.538,388.984 303.5,381.5C268.165,381.667 232.832,381.5 197.5,381C192.07,377.906 187.57,373.739 184,368.5C184.25,380.505 182.084,392.005 177.5,403C202.167,403.333 226.833,403.667 251.5,404C257.879,405.251 260.379,409.084 259,415.5C258.215,417.286 257.049,418.786 255.5,420C226.228,421.31 196.895,421.976 167.5,422C140.57,452.566 107.904,460.899 69.5,447C34.93,429.056 19.097,400.556 22,361.5C29.5,322.667 52.667,299.5 91.5,292C101.295,291.219 110.962,291.552 120.5,293C90.333,256.833 60.167,220.667 30,184.5C15.417,184.813 5.251,178.479 -0.5,165.5L-0.5,148.5C2.42,139.084 8.753,133.251 18.5,131C33.178,130.833 47.845,130.333 62.5,129.5C69.784,113.049 81.784,101.549 98.5,95C117.423,90.936 136.09,85.936 154.5,80C161.404,77.549 168.07,74.549 174.5,71C180.5,67 186.5,63 192.5,59C205.883,55.762 218.216,58.096 229.5,66C237.816,72.651 245.15,80.318 251.5,89C261.817,93.824 271.817,99.158 281.5,105C289.819,111.475 295.819,119.642 299.5,129.5C300.325,130.386 301.325,130.719 302.5,130.5C302.334,120.161 302.5,109.828 303,99.5C303.5,95 306,92.5 310.5,92C359.5,91.333 408.5,91.333 457.5,92C464.618,93.993 466.785,98.493 464,105.5C462.2,107.317 460.034,108.484 457.5,109C411.835,109.5 366.168,109.667 320.5,109.5L320.5,165.5L343.5,165.5C343.116,158.411 343.616,151.411 345,144.5C348.921,136.251 355.421,131.418 364.5,130C375.167,129.833 385.833,129.667 396.5,129.5C408.554,129.375 420.554,129.875 432.5,131C459.217,164.965 485.55,199.131 511.5,233.5ZM200.5,74.5C212.031,75.015 221.531,79.682 229,88.5C232.118,93.286 235.618,97.786 239.5,102C250.692,107.76 261.692,113.76 272.5,120C275.407,123.151 278.074,126.484 280.5,130C214.497,130.833 148.497,130.667 82.5,129.5C87.462,121.704 94.129,115.871 102.5,112C122.463,107.759 142.13,102.426 161.5,96C175.817,90.85 188.817,83.683 200.5,74.5ZM22.5,147.5L302.5,147.5L302.5,165.5C291.495,165.333 280.495,165.5 269.5,166C262.146,168.726 260.313,173.56 264,180.5C265.648,181.717 267.481,182.55 269.5,183C280.495,183.5 291.495,183.667 302.5,183.5L302.5,363.5C269.165,363.667 235.832,363.5 202.5,363C152.312,303.646 102.312,244.146 52.5,184.5C116.164,183.667 179.831,183.167 243.5,183C251.453,180.094 253.12,175.094 248.5,168C246.913,167.138 245.246,166.471 243.5,166C169.167,165.667 94.833,165.333 20.5,165C18.667,164.5 17.5,163.333 17,161.5C15.015,155.04 16.848,150.373 22.5,147.5ZM363.5,147.5C383.503,147.333 403.503,147.5 423.5,148C428.195,153.227 432.528,158.727 436.5,164.5C427.518,165.332 418.518,165.832 409.5,166C403.481,168.087 398.981,171.92 396,177.5C394.364,201.103 394.03,224.77 395,248.5C397.93,258.091 404.43,263.258 414.5,264C441.165,264.5 467.831,264.667 494.5,264.5L494.5,281.5C466.827,279.007 455.994,291.341 462,318.5C465.434,325.972 471.268,330.138 479.5,331C484.489,331.499 489.489,331.666 494.5,331.5C494.817,346.548 494.484,361.548 493.5,376.5C492.5,377.333 491.5,378.167 490.5,379C482.173,379.5 473.84,379.666 465.5,379.5C465.736,334.585 444.403,305.752 401.5,293C387.712,290.696 374.046,291.196 360.5,294.5C360.333,246.832 360.5,199.166 361,151.5C361.662,150.016 362.496,148.683 363.5,147.5ZM413.5,182.5C425.838,182.333 438.171,182.5 450.5,183C465.121,201.743 479.621,220.576 494,239.5C494.497,241.81 494.663,244.143 494.5,246.5C467.498,246.667 440.498,246.5 413.5,246C413,245.5 412.5,245 412,244.5C411.333,224.5 411.333,204.5 412,184.5C412.717,183.956 413.217,183.289 413.5,182.5ZM320.5,183.5L343.5,183.5C343.667,223.168 343.5,262.835 343,302.5C334.28,307.199 326.946,313.532 321,321.5C320.5,275.501 320.333,229.501 320.5,183.5ZM480.5,298.5L494.5,298.5L494.5,313.5C489.489,313.666 484.489,313.499 479.5,313C479,312.5 478.5,312 478,311.5C477.333,308.167 477.333,304.833 478,301.5C478.698,300.309 479.531,299.309 480.5,298.5ZM95.5,308.5C127.888,307.596 150.388,321.929 163,351.5C172.175,389.647 159.008,416.814 123.5,433C90.095,441.65 64.262,431.483 46,402.5C33.072,373.565 37.572,347.732 59.5,325C69.938,315.946 81.938,310.446 95.5,308.5ZM376.5,308.5C411.493,307.567 434.66,323.567 446,356.5C452.142,391.383 439.309,416.55 407.5,432C373.805,442.326 347.305,432.826 328,403.5C313.376,370.602 319.876,342.769 347.5,320C356.457,314.076 366.124,310.243 376.5,308.5Z" style="fill:rgb(0,64,133);fill-opacity:0.93;"/>
    </g>
    <g transform="matrix(0.192324,0,0,0.142882,0.705156,15.673)">
        <path d="M116.5,196.5C121.956,196.026 125.456,198.359 127,203.5C127.667,210.833 127.667,218.167 127,225.5C125.357,231.467 121.524,233.634 115.5,232C113.714,231.215 112.214,230.049 111,228.5C110.333,219.5 110.333,210.5 111,201.5C112.352,199.251 114.185,197.584 116.5,196.5Z" style="fill:rgb(0,64,133);fill-opacity:0.92;"/>
    </g>
    <g transform="matrix(0.192324,0,0,0.142882,0.705156,15.673)">
        <path d="M155.5,196.5C159.555,196.568 162.722,198.234 165,201.5C165.667,225.167 165.667,248.833 165,272.5C161.49,277.789 156.99,278.789 151.5,275.5C150.416,274.335 149.583,273.002 149,271.5C148.333,248.833 148.333,226.167 149,203.5C150.018,199.985 152.185,197.652 155.5,196.5Z" style="fill:rgb(0,64,133);fill-opacity:0.94;"/>
    </g>
    <g transform="matrix(0.192324,0,0,0.142882,0.705156,15.673)">
        <path d="M194.5,196.5C199.527,196.366 202.694,198.699 204,203.5C204.667,242.167 204.667,280.833 204,319.5C199.076,327.088 193.743,327.421 188,320.5C187.333,280.833 187.333,241.167 188,201.5C189.603,198.965 191.769,197.298 194.5,196.5Z" style="fill:rgb(0,64,133);fill-opacity:0.95;"/>
    </g>
    <g transform="matrix(0.192324,0,0,0.142882,0.705156,15.673)">
        <path d="M232.5,196.5C236.622,196.476 239.788,198.143 242,201.5C242.667,250.167 242.667,298.833 242,347.5C238.278,352.518 233.778,353.351 228.5,350C227.107,348.829 226.273,347.329 226,345.5C225.333,298.167 225.333,250.833 226,203.5C227.018,199.985 229.185,197.652 232.5,196.5Z" style="fill:rgb(0,64,133);fill-opacity:0.95;"/>
    </g>
    <g transform="matrix(0.192324,0,0,0.142882,0.705156,15.673)">
        <path d="M271.5,196.5C276.021,196.392 279.188,198.392 281,202.5C281.667,250.5 281.667,298.5 281,346.5C276.073,353.635 270.74,353.968 265,347.5C264.333,298.833 264.333,250.167 265,201.5C266.603,198.965 268.769,197.298 271.5,196.5Z" style="fill:rgb(0,64,133);fill-opacity:0.95;"/>
    </g>
    <g transform="matrix(0.192324,0,0,0.142882,0.705156,17.673)">
        <path d="M98.5,331.5C117.272,331.131 131.105,339.131 140,355.5C143.931,365.441 144.265,375.441 141,385.5C138.005,388.265 134.505,389.098 130.5,388C128.333,387.167 126.833,385.667 126,383.5C128.88,369.446 124.38,358.612 112.5,351C93.695,346.24 82.362,353.407 78.5,372.5C80.122,386.622 87.955,394.622 102,396.5C106.899,395.908 111.566,394.575 116,392.5C125.706,395.407 127.539,400.907 121.5,409C101.03,417.283 83.53,413.116 69,396.5C57.086,374.818 60.253,355.651 78.5,339C84.885,335.377 91.552,332.877 98.5,331.5Z" style="fill:rgb(0,64,133);fill-opacity:0.93;"/>
    </g>
    <g transform="matrix(0.192324,0,0,0.142882,0.705156,17.673)">
        <path d="M380.5,331.5C407.47,332.14 422.136,345.807 424.5,372.5C426.634,383.513 422.3,388.68 411.5,388C406.89,384.18 405.557,379.513 407.5,374C406.667,359.164 398.834,350.664 384,348.5C367.376,351.119 359.71,360.785 361,377.5C364.436,388.935 372.103,395.268 384,396.5C388.806,395.564 393.473,394.23 398,392.5C405.156,394.002 407.823,398.335 406,405.5C399.971,410.975 392.804,413.642 384.5,413.5C359.138,411.471 345.471,397.805 343.5,372.5C345.074,348.964 357.408,335.297 380.5,331.5Z" style="fill:rgb(0,64,133);fill-opacity:0.93;"/>
    </g>
</svg>
